<svg width="28" height="28" viewBox="0 0 28 28" fill="none" xmlns="http://www.w3.org/2000/svg">
<path d="M10.8538 4.6372C10.8049 4.28176 10.4832 4.02896 10.1263 4.0655L9.91733 4.08689C9.91733 4.08689 6.82303 4.4248 4.56385 6.23987H4.53489L4.50592 6.26883C3.99906 6.73226 3.777 7.3067 3.42943 8.14666C3.08187 8.98661 2.71017 10.0534 2.38191 11.2361C1.73022 13.6015 1.19922 16.4689 1.19922 19.095V19.317L1.31025 19.5391C2.12606 20.9728 3.57908 21.8852 4.9259 22.5175C6.27272 23.1499 7.43127 23.483 8.23743 23.512C8.56058 23.5298 8.86662 23.3656 9.03059 23.0866L9.03876 23.0727L10.0042 21.3638C11.0276 21.5955 12.2055 21.75 13.562 21.75C14.9184 21.75 16.0963 21.5955 17.1197 21.3638L18.0851 23.0727L18.0933 23.0866C18.2573 23.3656 18.5633 23.5298 18.8865 23.512C19.6878 23.483 20.8512 23.1499 22.198 22.5175C23.5448 21.8852 24.993 20.9728 25.8137 19.5391L25.9247 19.317V19.095C25.9247 16.4689 25.3937 13.6015 24.7372 11.2313C24.4089 10.0486 24.0372 8.98178 23.6896 8.14183C23.3421 7.30188 23.12 6.73226 22.6131 6.26401L22.5842 6.23504H22.5552C20.296 4.41998 17.2017 4.08206 17.2017 4.08206L17.0291 4.06483C16.6618 4.02818 16.3276 4.27908 16.2604 4.64203C16.2604 4.64203 16.0046 6.25814 15.8453 6.99189C14.846 6.8519 14.0302 6.82293 13.5571 6.82293C13.084 6.82293 12.2682 6.8519 11.269 6.98706C11.1097 6.25331 10.8538 4.6372 10.8538 4.6372ZM9.39116 6.01781C9.42978 6.14332 9.64634 7.20486 9.68013 7.30623C8.79342 7.52791 7.74918 7.84575 6.80401 8.30127C6.36412 8.51327 6.23788 9.06154 6.49753 9.4751C6.75502 9.88523 7.29461 10.007 7.73212 9.79938C9.93302 8.75505 12.6524 8.58973 13.5571 8.58973C14.4618 8.58973 17.1775 8.75506 19.381 9.79943C19.8192 10.0071 20.3594 9.88498 20.6172 9.47429C20.8768 9.0608 20.7516 8.51256 20.3122 8.29971C19.3665 7.8416 18.3214 7.5243 17.4341 7.30623C17.4679 7.20486 17.6845 6.14332 17.7231 6.01781C18.5486 6.18194 20.1174 6.5633 21.4208 7.59152C21.416 7.59634 21.7539 8.10321 22.0532 8.83213C22.3621 9.58037 22.7097 10.5748 23.0186 11.6996C23.6172 13.8525 24.0855 16.4786 24.1241 18.7909C23.569 19.6405 22.5359 20.4032 21.4498 20.9149C20.4988 21.359 19.7457 21.5231 19.2968 21.6052L18.8575 20.8618C19.1182 20.7652 19.3789 20.659 19.6009 20.5577C20.1779 20.303 20.6431 20.0406 20.9872 19.823C21.3938 19.5659 21.4384 19.023 21.1215 18.6612C20.8009 18.2951 20.2277 18.2494 19.8066 18.4933C19.5642 18.6337 19.2578 18.7937 18.8816 18.9598C17.7231 19.4715 15.9563 19.9784 13.5571 19.9784C11.158 19.9784 9.39116 19.4667 8.2326 18.9598C7.85718 18.794 7.5512 18.6343 7.30908 18.4941C6.88716 18.2498 6.3129 18.2957 5.99167 18.6624C5.675 19.024 5.71866 19.5662 6.12462 19.8235C6.46897 20.0417 6.93499 20.3045 7.51334 20.5577C7.73539 20.659 7.99607 20.7652 8.25674 20.8618L7.81746 21.6052C7.36852 21.5231 6.61546 21.359 5.66448 20.9149C4.57351 20.4032 3.54529 19.6405 2.99015 18.7909C3.02877 16.4786 3.49702 13.8574 4.0956 11.6996C4.40455 10.5748 4.75212 9.58037 5.06106 8.83213C5.36518 8.10321 5.7031 7.59634 5.69344 7.59152C6.99681 6.5633 8.56569 6.18677 9.39116 6.01781ZM10.4676 12.0326C9.787 12.0326 9.18358 12.4236 8.81188 12.916C8.44501 13.4084 8.26157 14.0167 8.26157 14.6828C8.26157 15.349 8.44501 15.9572 8.81188 16.4496C9.17876 16.942 9.78217 17.333 10.4676 17.333C11.1531 17.333 11.7517 16.942 12.1234 16.4496C12.4903 15.9572 12.6737 15.349 12.6737 14.6828C12.6737 14.0167 12.4903 13.4084 12.1234 12.916C11.7517 12.4236 11.1483 12.0326 10.4676 12.0326ZM16.6466 12.0326C15.9659 12.0326 15.3625 12.4236 14.9908 12.916C14.624 13.4084 14.4405 14.0167 14.4405 14.6828C14.4405 15.349 14.624 15.9572 14.9908 16.4496C15.3577 16.942 15.9611 17.333 16.6466 17.333C17.3321 17.333 17.9307 16.942 18.3024 16.4496C18.6692 15.9572 18.8527 15.349 18.8527 14.6828C18.8527 14.0167 18.6692 13.4084 18.3024 12.916C17.9307 12.4236 17.3272 12.0326 16.6466 12.0326ZM10.4676 13.7994C10.5159 13.7994 10.5787 13.8187 10.6897 13.9636C10.8007 14.1132 10.9118 14.3691 10.9118 14.6828C10.9118 14.9918 10.8007 15.2524 10.6897 15.4021C10.5787 15.5517 10.5159 15.5662 10.4676 15.5662C10.4194 15.5662 10.3566 15.5469 10.2456 15.4021C10.1346 15.2524 10.0235 14.9966 10.0235 14.6828C10.0235 14.3739 10.1346 14.1132 10.2456 13.9636C10.3566 13.8139 10.4194 13.7994 10.4676 13.7994ZM16.6466 13.7994C16.6949 13.7994 16.7576 13.8187 16.8687 13.9636C16.9797 14.1132 17.0907 14.3691 17.0907 14.6828C17.0907 14.9918 16.9797 15.2524 16.8687 15.4021C16.7576 15.5517 16.6949 15.5662 16.6466 15.5662C16.5983 15.5662 16.5356 15.5469 16.4245 15.4021C16.3135 15.2524 16.2025 14.9966 16.2025 14.6828C16.2025 14.3739 16.3135 14.1132 16.4245 13.9636C16.5356 13.8139 16.5983 13.7994 16.6466 13.7994Z" fill="#9277FF"/>
</svg>
