<svg width="28" height="28" viewBox="0 0 28 28" fill="none" xmlns="http://www.w3.org/2000/svg">
<g clip-path="url(#clip0_8758_27609)">
<path d="M25.6654 4.67835C24.4987 5.25002 23.3554 5.48218 22.1654 5.83335C20.8575 4.35752 18.9185 4.27585 17.0554 4.97352C15.1922 5.67118 13.9719 7.37685 13.9987 9.33335V10.5C10.2129 10.5969 6.8412 8.87252 4.66536 5.83335C4.66536 5.83335 -0.213636 14.5052 9.33203 18.6667C7.14803 20.1215 4.96986 21.1027 2.33203 21C6.19136 23.1035 10.3972 23.8269 14.0384 22.7699C18.215 21.5565 21.6474 18.4264 22.9645 13.7375C23.3575 12.3115 23.5526 10.8382 23.5444 9.35902C23.542 9.06852 25.306 6.12502 25.6654 4.67718V4.67835Z" stroke="#77E6FF" stroke-width="2.1" stroke-linecap="round" stroke-linejoin="round"/>
</g>
<defs>
<clipPath id="clip0_8758_27609">
<rect width="28" height="28" fill="white"/>
</clipPath>
</defs>
</svg>
