<svg width="28" height="28" viewBox="0 0 28 28" fill="none" xmlns="http://www.w3.org/2000/svg">
<g clip-path="url(#clip0_8758_27617)">
<path fill-rule="evenodd" clip-rule="evenodd" d="M3.91615 10.2663C3.91615 8.13531 5.64361 6.40785 7.77455 6.40785H20.221C22.352 6.40785 24.0794 8.13531 24.0794 10.2663V17.7341C24.0794 19.8651 22.352 21.5925 20.221 21.5925H7.77455C5.64361 21.5925 3.91615 19.8651 3.91615 17.7341V10.2663ZM7.77455 4.16748C4.40629 4.16748 1.67578 6.89799 1.67578 10.2663V17.7341C1.67578 21.1024 4.40629 23.8329 7.77455 23.8329H20.221C23.5893 23.8329 26.3198 21.1024 26.3198 17.7341V10.2663C26.3198 6.89799 23.5893 4.16748 20.221 4.16748H7.77455ZM12.0871 9.30514C11.7411 9.09751 11.3101 9.09207 10.9589 9.29091C10.6077 9.48975 10.3906 9.86212 10.3906 10.2657V17.7336C10.3906 18.1371 10.6077 18.5095 10.9589 18.7084C11.3101 18.9072 11.7411 18.9018 12.0871 18.6941L18.3104 14.9602C18.6478 14.7577 18.8542 14.3931 18.8542 13.9996C18.8542 13.6062 18.6478 13.2415 18.3104 13.0391L12.0871 9.30514ZM15.5568 13.9996L12.631 15.7551V12.2441L15.5568 13.9996Z" fill="#F78787"/>
</g>
<defs>
<clipPath id="clip0_8758_27617">
<rect width="28" height="28" fill="white"/>
</clipPath>
</defs>
</svg>
