<svg width="22" height="22" viewBox="0 0 22 22" fill="none" xmlns="http://www.w3.org/2000/svg">
<g clip-path="url(#clip0_9779_3772)">
<path d="M8.2513 3.66675H11.0013L12.8346 5.50008H17.418C17.9042 5.50008 18.3705 5.69324 18.7143 6.03705C19.0581 6.38087 19.2513 6.84718 19.2513 7.33342V13.7501C19.2513 14.2363 19.0581 14.7026 18.7143 15.0464C18.3705 15.3903 17.9042 15.5834 17.418 15.5834H8.2513C7.76507 15.5834 7.29876 15.3903 6.95494 15.0464C6.61112 14.7026 6.41797 14.2363 6.41797 13.7501V5.50008C6.41797 5.01385 6.61112 4.54754 6.95494 4.20372C7.29876 3.8599 7.76507 3.66675 8.2513 3.66675Z" stroke="#A36FFE" stroke-width="1.5" stroke-linecap="round" stroke-linejoin="round"/>
<path d="M15.5833 15.5833V17.4166C15.5833 17.9028 15.3902 18.3691 15.0464 18.7129C14.7025 19.0568 14.2362 19.2499 13.75 19.2499H4.58333C4.0971 19.2499 3.63079 19.0568 3.28697 18.7129C2.94315 18.3691 2.75 17.9028 2.75 17.4166V9.16659C2.75 8.68036 2.94315 8.21404 3.28697 7.87022C3.63079 7.52641 4.0971 7.33325 4.58333 7.33325H6.41667" stroke="#A36FFE" stroke-width="1.5" stroke-linecap="round" stroke-linejoin="round"/>
</g>
<defs>
<clipPath id="clip0_9779_3772">
<rect width="22" height="22" fill="white"/>
</clipPath>
</defs>
</svg>
