<svg width="22" height="22" viewBox="0 0 22 22" fill="none" xmlns="http://www.w3.org/2000/svg">
<g clip-path="url(#clip0_9779_3789)">
<path d="M5.5013 19.2499C6.51382 19.2499 7.33464 18.4291 7.33464 17.4166C7.33464 16.4041 6.51382 15.5833 5.5013 15.5833C4.48878 15.5833 3.66797 16.4041 3.66797 17.4166C3.66797 18.4291 4.48878 19.2499 5.5013 19.2499Z" stroke="#F87388" stroke-width="1.5" stroke-linecap="round" stroke-linejoin="round"/>
<path d="M16.5013 6.41667C17.5138 6.41667 18.3346 5.59586 18.3346 4.58333C18.3346 3.57081 17.5138 2.75 16.5013 2.75C15.4888 2.75 14.668 3.57081 14.668 4.58333C14.668 5.59586 15.4888 6.41667 16.5013 6.41667Z" stroke="#F87388" stroke-width="1.5" stroke-linecap="round" stroke-linejoin="round"/>
<path d="M10.9987 17.4166H15.1237C15.9746 17.4166 16.7907 17.0786 17.3923 16.4769C17.994 15.8752 18.332 15.0592 18.332 14.2083C18.332 13.3573 17.994 12.5413 17.3923 11.9396C16.7907 11.3379 15.9746 10.9999 15.1237 10.9999H7.79037C6.93946 10.9999 6.12341 10.6619 5.52173 10.0602C4.92005 9.45854 4.58203 8.64249 4.58203 7.79158C4.58203 6.94068 4.92005 6.12463 5.52173 5.52295C6.12341 4.92127 6.93946 4.58325 7.79037 4.58325H10.9987" stroke="#F87388" stroke-width="1.5" stroke-linecap="round" stroke-linejoin="round"/>
</g>
<defs>
<clipPath id="clip0_9779_3789">
<rect width="22" height="22" fill="white"/>
</clipPath>
</defs>
</svg>
