<svg width="36" height="36" viewBox="0 0 36 36" fill="none" xmlns="http://www.w3.org/2000/svg">
<path d="M25.4051 12.4577L27.3192 20.5438C27.529 21.4301 26.8651 22.2818 25.9644 22.2818H8.70134C7.05685 22.2818 5.58737 21.2427 5.02206 19.68L4.86526 19.2466C4.78207 19.0167 4.9503 18.7731 5.19233 18.7731H16.4664C16.6 18.7731 16.7082 18.6635 16.7082 18.5285C16.7082 17.5152 15.8965 16.6938 14.8951 16.6938H6.67979C5.0353 16.6938 3.56582 15.6547 3.00052 14.092L2.85939 13.7019C2.7762 13.472 2.94443 13.2284 3.18644 13.2284H13.898C14.0314 13.2284 14.1397 13.1189 14.1397 12.9838C14.1397 11.9705 13.3279 11.1491 12.3266 11.1491H4.6739C3.02943 11.1491 1.55994 10.11 0.994637 8.54739L0.869186 8.20062C0.785994 7.97064 0.954227 7.72705 1.19623 7.72705H19.478C22.2971 7.72705 24.7484 9.68349 25.4051 12.4577Z" fill="url(#paint0_linear_9760_4019)"/>
<path d="M32.4299 14.8863L35.1202 26.3065C35.3242 27.172 34.6595 27.9995 33.7605 27.9995H15.7148C14.0056 27.9995 12.4928 26.9068 11.9736 25.2973L11.7907 24.7304C11.6831 24.3966 11.9351 24.0557 12.2896 24.0557H28.7678C29.6718 24.0557 30.3375 23.2195 30.1247 22.351L27.7178 12.5245C27.6381 12.1988 27.8877 11.8853 28.2267 11.8853H28.6054C30.431 11.8853 32.0159 13.1288 32.4299 14.8863Z" fill="url(#paint1_linear_9760_4019)"/>
<defs>
<linearGradient id="paint0_linear_9760_4019" x1="14.0969" y1="7.72705" x2="14.0969" y2="22.2818" gradientUnits="userSpaceOnUse">
<stop stop-color="#FFC803"/>
<stop offset="1" stop-color="#FFA903"/>
</linearGradient>
<linearGradient id="paint1_linear_9760_4019" x1="23.4285" y1="11.8853" x2="23.4285" y2="27.9995" gradientUnits="userSpaceOnUse">
<stop stop-color="#FF7421"/>
<stop offset="1" stop-color="#EC5901"/>
</linearGradient>
</defs>
</svg>
